<svg xmlns="http://www.w3.org/2000/svg" xmlns:xlink="http://www.w3.org/1999/xlink" xmlns:inkscape="http://www.inkscape.org/namespaces/inkscape" version="1.1" width="864" height="864" viewBox="0 0 864 864">
<g inkscape:groupmode="layer" inkscape:label="Layer 1">
<path transform="matrix(1,0,0,-1,0,864)" d="M432.0003 728.9532C596.003 728.9532 728.9532 596.003 728.9532 432.0003 728.9532 267.9976 596.003 135.0471 432.0003 135.0471 267.9976 135.0471 135.0471 267.9976 135.0471 432.0003 135.0471 596.003 267.9976 728.9532 432.0003 728.9532Z" fill-rule="evenodd"/>
<path transform="matrix(1,0,0,-1,0,864)" stroke-width=".5" stroke-linecap="butt" stroke-miterlimit="2.6131259" stroke-linejoin="miter" fill="none" stroke="#000000" d="M432.0003 728.9532C596.003 728.9532 728.9532 596.003 728.9532 432.0003 728.9532 267.9976 596.003 135.0471 432.0003 135.0471 267.9976 135.0471 135.0471 267.9976 135.0471 432.0003 135.0471 596.003 267.9976 728.9532 432.0003 728.9532Z"/>
<path transform="matrix(1,0,0,-1,0,864)" d="M432.0003 717.3102C589.5726 717.3102 717.3102 589.5726 717.3102 432.0003 717.3102 274.4277 589.5726 146.6901 432.0003 146.6901 274.4277 146.6901 146.6901 274.4277 146.6901 432.0003 146.6901 589.5726 274.4277 717.3102 432.0003 717.3102ZM432.0003 713.1223C587.2595 713.1223 713.1223 587.2595 713.1223 432.0003 713.1223 276.7408 587.2595 150.878 432.0003 150.878 276.7408 150.878 150.878 276.7408 150.878 432.0003 150.878 587.2595 276.7408 713.1223 432.0003 713.1223" fill="#ffffff" fill-rule="evenodd"/>
<path transform="matrix(1,0,0,-1,0,864)" d="M593.0626 365.315 636.0712 446.1344C635.4731 443.6161 607.6145 328.451 607.0805 326.1662Z" fill="#525253"/>
<path transform="matrix(1,0,0,-1,0,864)" d="M636.0712 446.1344 593.0626 365.315 531.4116 345.0821Z" fill="#8b8d90"/>
<path transform="matrix(1,0,0,-1,0,864)" d="M631.5659 477.2044 632.1569 474.4485 557.2003 402.0729 564.3757 439.6354Z" fill="#525253"/>
<path transform="matrix(1,0,0,-1,0,864)" d="M631.5659 477.2044 564.3757 439.6354 511.9472 472.587Z" fill="#8b8d90"/>
<path transform="matrix(1,0,0,-1,0,864)" d="M556.4225 594.5233 624.9983 500.0533 555.6027 547.2899Z" fill="#525253"/>
<path transform="matrix(1,0,0,-1,0,864)" d="M624.9983 500.0533 494.513 495.0164 497.8185 538.5886 555.6027 547.2899Z" fill="#525253"/>
<path transform="matrix(1,0,0,-1,0,864)" d="M593.0626 365.315 607.0805 326.1662 531.4116 345.0821Z" fill="#fefefe"/>
<path transform="matrix(1,0,0,-1,0,864)" d="M593.0626 305.8665 473.0496 231.4672 475.0279 292.5573 507.3256 327.3032Z" fill="#525253"/>
<path transform="matrix(1,0,0,-1,0,864)" d="M564.3757 439.6354 557.2003 402.0729 511.9472 472.587Z" fill="#fefefe"/>
<path transform="matrix(1,0,0,-1,0,864)" d="M556.4225 594.5233 590.7095 547.2899 497.8185 538.5886 433.6135 582.1526Z" fill="#8b8d90"/>
<path transform="matrix(1,0,0,-1,0,864)" d="M492.4137 460.2813 540.2636 385.7162 492.4137 384.4142Z" fill="#525253"/>
<path transform="matrix(1,0,0,-1,0,864)" d="M540.2636 385.7162 503.4818 350.2106 433.5126 346.216 492.4137 384.4142Z" fill="#fefefe"/>
<path transform="matrix(1,0,0,-1,0,864)" d="M524.7224 614.5353 428.0295 604.796 449.2491 636.0545Z" fill="#8b8d90"/>
<path transform="matrix(1,0,0,-1,0,864)" d="M507.3256 327.3032 475.0279 292.5573 431.4716 322.9671Z" fill="#8b8d90"/>
<path transform="matrix(1,0,0,-1,0,864)" d="M497.8185 538.5886 494.513 495.0164 433.6135 534.1334V582.1526Z" fill="#fefefe"/>
<path transform="matrix(1,0,0,-1,0,864)" d="M492.4137 460.2813V384.4142L433.5126 346.216Z" fill="#8b8d90"/>
<path transform="matrix(1,0,0,-1,0,864)" d="M476.2548 479.3102 440.5833 410.2234 418.4314 472.587Z" fill="#525253"/>
<path transform="matrix(1,0,0,-1,0,864)" d="M476.2548 479.3102 418.4314 472.587 384.8987 481.6474 422.9717 513.5284Z" fill="#8b8d90"/>
<path transform="matrix(1,0,0,-1,0,864)" d="M475.0279 292.5573 473.0496 231.4672C461.0307 258.0174 441.9947 299.859 431.4716 322.9671Z" fill="#fefefe"/>
<path transform="matrix(1,0,0,-1,0,864)" d="M449.2491 636.0545 428.0295 604.796 408.7128 635.4992Z" fill="#fefefe"/>
<path transform="matrix(1,0,0,-1,0,864)" d="M449.2491 228.0458 345.0342 246.5685 384.1424 282.3571Z" fill="#525253"/>
<path transform="matrix(1,0,0,-1,0,864)" d="M449.2491 228.0458 384.1424 282.3571 369.4439 336.659 405.5227 324.2364C413.4917 306.7387 434.9407 259.6192 449.2491 228.0458" fill="#fefefe"/>
<path transform="matrix(1,0,0,-1,0,864)" d="M418.4314 472.587 440.5833 410.2234 384.8987 481.6474Z" fill="#fefefe"/>
<path transform="matrix(1,0,0,-1,0,864)" d="M365.3651 469.152 428.9182 387.6398 408.2933 347.6988 347.5675 399.4495Z" fill="#8b8d90"/>
<path transform="matrix(1,0,0,-1,0,864)" d="M410.5253 589.2608V533.2178L369.6335 575.6862 384.1424 631.1954Z" fill="#fefefe"/>
<path transform="matrix(1,0,0,-1,0,864)" d="M369.6335 575.6862 410.5253 533.2178 367.4781 497.1793 265.3407 551.2547Z" fill="#525253"/>
<path transform="matrix(1,0,0,-1,0,864)" d="M408.2933 347.6988 301.6857 384.4142 347.5675 399.4495Z" fill="#525253"/>
<path transform="matrix(1,0,0,-1,0,864)" d="M384.1424 631.1954 369.6335 575.6862 265.3407 551.2547Z" fill="#8b8d90"/>
<path transform="matrix(1,0,0,-1,0,864)" d="M369.4439 336.659 384.1424 282.3571 345.0342 246.5685Z" fill="#8b8d90"/>
<path transform="matrix(1,0,0,-1,0,864)" d="M365.3651 469.152 347.5675 399.4495 301.6857 384.4142 285.2246 433.8077Z" fill="#fefefe"/>
<path transform="matrix(1,0,0,-1,0,864)" d="M347.5675 344.1932 324.1791 257.8637 318.8129 322.9671Z" fill="#fefefe"/>
<path transform="matrix(1,0,0,-1,0,864)" d="M347.5675 344.1932 318.8129 322.9671 296.3619 361.838Z" fill="#8b8d90"/>
<path transform="matrix(1,0,0,-1,0,864)" d="M342.4808 484.2916 267.8386 451.368 272.2601 489.0008Z" fill="#8b8d90"/>
<path transform="matrix(1,0,0,-1,0,864)" d="M342.4808 484.2916 272.2601 489.0008 252.9369 531.6897Z" fill="#fefefe"/>
<path transform="matrix(1,0,0,-1,0,864)" d="M318.8129 322.9671 324.1791 257.8637 261.1012 318.9903 296.3619 361.838Z" fill="#525253"/>
<path transform="matrix(1,0,0,-1,0,864)" d="M262.997 427.4898 279.5712 377.7684 248.7461 340.3111Z" fill="#fefefe"/>
<path transform="matrix(1,0,0,-1,0,864)" d="M252.9369 531.6897 272.2601 489.0008 267.8386 451.368 227.5826 446.3022Z" fill="#525253"/>
<path transform="matrix(1,0,0,-1,0,864)" d="M262.997 427.4898 248.7461 340.3111 227.2887 422.9912Z" fill="#8b8d90"/>
<path transform="matrix(1,0,0,-1,0,864)" d="M227.2014 516.344 183.1935 541.5534 187.9775 549.9145 217.3612 550.7765 203.3901 576.8127 207.957 584.7987 251.977 559.6016 246.8917 550.7323 231.3672 559.6254C228.8021 561.0954 226.4547 562.4935 224.3007 563.8436 222.1466 565.1813 220.0893 566.5317 218.1407 567.87L229.1907 546.5064 226.8167 542.3562 203.0664 541.2623C205.1107 540.3713 207.2401 539.3356 209.4299 538.1668 211.6321 536.9984 214.0639 535.6369 216.7503 534.1065L232.2746 525.2134Z" fill="#ffffff"/>
<path transform="matrix(1,0,0,-1,0,864)" d="M284.8414 593.6672 271.245 646.4534 278.8929 651.9728 324.6437 622.3881 315.9499 616.1117 306.184 622.5678 290.1909 611.0283 293.2466 599.7362ZM285.5446 628.2442 287.8296 619.8837 298.5919 627.6501 291.2312 632.5285C290.5634 632.9466 289.7371 633.5209 288.7285 634.2508 287.7199 634.981 286.6382 635.7708 285.4718 636.5965 284.3053 637.422 283.2358 638.2242 282.2511 639.0147 282.8322 637.2179 283.4135 635.3847 284.0077 633.4792 284.6018 631.5857 285.1101 629.8367 285.5446 628.2442" fill="#ffffff"/>
<path transform="matrix(1,0,0,-1,0,864)" d="M368.2216 640.1183 359.2162 690.0571 379.5517 693.7157C384.3969 694.5968 388.8337 694.3042 392.8501 692.8381 396.8785 691.3843 400.2321 688.9499 402.9352 685.5591 405.6259 682.1683 407.4239 678.0263 408.3049 673.1206 409.1981 668.1787 408.9662 663.6572 407.6215 659.5566 406.2764 655.4682 403.9875 652.03 400.7537 649.2671 397.5205 646.492 393.4508 644.6699 388.5571 643.7767ZM380.8777 684.3144 371.175 682.5645 376.8157 651.3182 386.5062 653.0678C390.9407 653.8632 394.1515 655.8888 396.163 659.1569 398.1866 662.413 398.7581 666.4394 397.8893 671.2483 397.0329 675.9969 395.079 679.5706 392.0156 681.9333 388.9644 684.3078 385.2519 685.0976 380.8777 684.3144" fill="#ffffff"/>
<path transform="matrix(1,0,0,-1,0,864)" d="M461.8905 646.8613 473.298 696.3129 495.0561 691.2859C498.066 690.5971 500.6529 689.2798 502.8165 687.3338 504.9683 685.4 506.5036 683.079 507.4104 680.3595 508.3294 677.6518 508.4382 674.7871 507.7375 671.7651 507.0002 668.562 505.4893 665.8903 503.2049 663.7385 500.9204 661.5867 498.2494 660.1966 495.1791 659.5679L501.9256 637.5444 490.1397 640.336 484.1671 660.5461 475.8265 662.4675 471.7057 644.5896ZM477.7722 670.8688 489.3523 668.198C491.3345 667.7388 493.0753 668.0412 494.5861 669.117 496.097 670.1808 497.088 671.7161 497.5594 673.7468 498.0549 675.9105 497.7283 677.8205 496.5678 679.4762 495.4195 681.1322 493.6425 682.2442 491.237 682.8001L481.0589 685.1443Z" fill="#ffffff"/>
<path transform="matrix(1,0,0,-1,0,864)" d="M541.5077 620.3724 587.3783 649.8235 595.014 644.3042 581.2611 591.5798 572.5791 597.8682 575.6471 609.1603 559.6784 620.7358 549.9009 614.2915ZM574.5699 630.5397 567.3427 625.7571 578.0806 617.9669 580.4031 626.4961C580.6018 627.2442 580.8869 628.2213 581.2705 629.403 581.6537 630.597 582.0497 631.8632 582.4709 633.2383 582.8919 634.6012 583.3242 635.8671 583.7556 637.0486 582.2365 635.9355 580.6689 634.8107 579.0529 633.6499 577.4366 632.4891 575.9425 631.4604 574.5699 630.5397" fill="#ffffff"/>
<path transform="matrix(1,0,0,-1,0,864)" d="M620.5915 542.8981C618.0883 546.8658 616.6604 550.7181 616.3197 554.4794 615.9793 558.2407 616.5451 561.9725 618.0177 565.7111L627.8598 564.118C626.3391 560.3556 625.7038 557.1802 625.9425 554.5922 626.1812 552.0039 627.0489 549.5207 628.5339 547.1427 629.7557 545.2257 631.186 543.8636 632.8375 543.0438 634.5006 542.2363 636.0239 542.2637 637.4072 543.1501 639.0814 544.2041 639.8649 545.8796 639.7577 548.189 639.6503 550.4862 639.013 553.1374 637.8701 556.1297 635.9426 561.363 635.3402 565.7907 636.0866 569.4007 636.8332 573.0225 639.0142 575.9592 642.6057 578.2348 645.0928 579.8038 647.744 580.4773 650.5469 580.2432 653.3501 580.009 656.028 579.0626 658.5687 577.3796 661.1213 575.6964 663.296 573.4352 665.1045 570.5719 667.4998 566.7744 668.8449 563.2126 669.1516 559.8867 669.4464 556.5609 668.8718 553.4093 667.44 550.444L658.254 552.6255C660.2525 557.4246 660.0121 561.7899 657.5329 565.7088 656.2517 567.7591 654.7972 569.1336 653.1695 569.8565 651.5419 570.5668 650.0183 570.4792 648.5865 569.569 647.07 568.6228 646.348 567.1403 646.3967 565.1578 646.4577 563.1627 647.024 560.7901 648.0714 558.0281 649.9757 552.9399 650.7227 548.4146 650.325 544.4762 649.927 540.538 647.987 537.4791 644.5171 535.2874 641.6538 533.4789 638.7718 532.6135 635.8589 532.6909 632.9582 532.7804 630.1956 533.6912 627.5707 535.4354 624.9577 537.1792 622.6274 539.6709 620.5915 542.8981" fill="#ffffff"/>
<path transform="matrix(1,0,0,-1,0,864)" d="M183.181 332.6374 192.6269 345.4498C196.4625 341.1737 201.6799 339.6932 207.4501 341.6457 216.0788 344.5651 219.2338 352.7989 215.7565 363.0759L210.1218 379.728 171.6517 366.711 174.6643 357.808 185.381 361.434 188.0031 353.685 188.1516 353.2456 179.9453 342.1998ZM204.4006 350.6584C200.2238 349.2451 196.7661 351.1378 194.925 356.5786L192.4705 363.8327 205.88 368.3701 208.3348 361.116C210.1757 355.6752 208.6325 352.0905 204.4006 350.6584ZM195.9622 304.4693C201.7809 293.1086 213.9928 288.7379 224.7854 294.2657 235.578 299.7935 239.1676 312.2572 233.3489 323.6179 227.5038 335.0302 215.2667 339.3227 204.5259 333.8215 193.7849 328.3203 190.1171 315.8816 195.9622 304.4693ZM203.0885 308.1192C199.7824 314.574 201.9954 321.8349 208.8635 325.3527 215.7316 328.8702 222.9168 326.4228 226.2229 319.968 229.5289 313.5129 227.3159 306.2523 220.4478 302.7348 213.5798 299.217 206.3945 301.6641 203.0885 308.1192ZM225.8563 260.2939C230.2296 254.7286 235.8575 251.6987 241.9186 251.5912L242.5697 259.7769C238.3758 259.9495 234.9833 261.6372 232.4741 264.8305 227.778 270.8065 228.6408 278.3469 234.6625 283.0791 240.6841 287.8112 248.2149 286.8667 252.9111 280.8904 255.4206 277.6972 256.2582 274.002 255.4798 269.9223L263.5872 268.6192C264.8707 274.4983 263.2572 280.6826 258.9194 286.2026 251.1045 296.1473 238.4087 298.1245 228.7834 290.5605 219.1578 282.9966 218.0772 270.193 225.8563 260.2939ZM265.9388 221.9743 274.227 214.7947 275.5032 243.4717 300.0725 246.1377 292.1791 252.9754 266.1627 250.4115 278.5844 264.7514 271.5242 270.8674 244.9329 240.1702 251.9935 234.0541 258.7173 241.8163 266.5621 242.5433ZM345.0832 183.2292 342.5649 189.2069C345.2264 190.8692 347.6271 193.2219 349.7485 196.0832L344.0724 201.1326C342.6695 199.1563 341.1507 197.4869 339.6169 196.2065L335.694 205.5572C341.9595 206.0357 345.4466 207.8337 347.1673 211.64 349.5336 216.8736 346.786 222.0636 340.3894 224.9555 333.411 228.1105 327.1915 226.4655 324.7534 221.0732 323.5584 218.4296 323.5929 215.549 325.0225 211.5281 317.9316 210.9132 313.9889 208.8119 311.8856 204.1597 309.2085 198.2387 313.2706 191.3085 321.412 187.6277 326.1702 185.4765 331.0688 185.0448 335.647 186.1586L338.2237 180.0272ZM337.8557 219.352C340.2349 218.2762 340.9299 216.4337 340.1172 214.6363 339.3524 212.9448 337.568 212.0958 333.0357 211.7891 331.7664 215.0374 331.6629 216.3574 332.3083 217.7847 333.1928 219.7409 335.3185 220.4991 337.8557 219.352ZM324.9094 193.8144C320.8385 195.6549 319.1618 198.7053 320.3807 201.4013 321.4083 203.6747 323.3891 204.8168 327.657 205.2431L332.8149 192.8509C330.1605 192.3318 327.4472 192.6672 324.9094 193.8144ZM413.7194 173.8037C411.1985 172.8374 408.7803 172.6767 406.2481 172.9984 398.5353 173.9786 393.863 180.0113 394.8208 187.5512 395.7936 195.2062 401.8119 199.7634 409.6395 198.769 413.7259 198.2497 416.9387 196.3791 419.4791 192.8985L426.1671 197.6632C422.8311 202.7072 417.2675 205.8704 410.1883 206.7701 397.3533 208.4009 386.9249 200.8947 385.3817 188.7506 383.8385 176.6064 392.0584 166.7307 404.7208 165.1218 410.4763 164.3905 416.804 165.3996 421.6598 168.1744L423.7367 184.5204 415.2186 185.6027ZM443.2093 172.1699 442.4967 181.5418 461.2983 182.9716 460.7442 190.2609 441.9422 188.8311 441.2735 197.6244 462.5629 199.2433 461.9911 206.7639 431.3874 204.4369 434.467 163.9409 465.8224 166.3254 465.2504 173.846ZM522.0692 179.4648 510.8632 218.5013 503.4308 216.3906 495.9354 188.0263 474.4276 208.1546 466.9486 206.0306 478.0431 166.9626 486.5267 169.3715 480.0127 192.3103 496.7855 176.7481 500.8601 177.9052 506.8641 200.4783 513.5763 177.0531ZM576.3481 205.9586C586.1166 212.2211 587.723 220.1426 584.0646 225.849 576.017 238.4016 558.93 221.3019 554.8856 227.6107 553.5026 229.7682 554.1823 232.685 558.8714 235.6911 561.8996 237.6323 565.7357 238.8512 570.0691 239.0794L568.6597 246.6527C564.2011 246.6201 559.1475 244.8275 554.8496 242.0719 545.1296 235.8405 543.5408 227.9991 547.2723 222.1787 555.4137 209.4795 572.4746 226.62 576.5769 220.2216 577.9179 218.1294 577.0148 215.3452 572.326 212.3393 568.2231 209.7088 562.9859 208.4185 558.7628 208.6631L559.8913 200.9906C564.4227 200.5872 570.9266 202.4827 576.3481 205.9586ZM591.7073 270.8237 602.7568 259.234 589.4033 246.5031 578.3539 258.0928 571.551 251.6071 599.5752 222.2124 606.378 228.6984 594.8881 240.7501 608.2418 253.4811 619.7318 241.4293 626.5344 247.915 598.5099 277.3094ZM648.5306 273.7227C655.9279 284.1248 654.1744 296.9759 644.2923 304.0033 634.4104 311.0306 621.6956 308.4678 614.2986 298.0658 606.8679 287.6165 608.7022 274.7786 618.5367 267.7853 628.3715 260.7914 641.0999 263.2734 648.5306 273.7227ZM642.0059 278.3625C637.8029 272.4525 630.3396 271.0675 624.0509 275.5395 617.7626 280.0114 616.6205 287.5156 620.8234 293.4258 625.0263 299.3363 632.4894 300.721 638.778 296.2491 645.0664 291.7772 646.2088 284.273 642.0059 278.3625ZM650.9724 365.5043 673.2981 345.0319 643.2523 348.4284 639.667 340.4985 661.7336 320.0162 631.9468 323.4223 627.9316 314.5411 670.4354 309.9694 674.5703 319.1153 653.3121 338.8504 682.0515 335.6626 686.2102 344.8616 654.677 373.6984Z" fill="#fefefe"/>
</g>
</svg>
